<?xml version="1.0" encoding="utf-8"?>
<!-- Generator: Adobe Illustrator 21.1.0, SVG Export Plug-In . SVG Version: 6.00 Build 0)  -->
<svg version="1.1" id="Capa_1" xmlns="http://www.w3.org/2000/svg" xmlns:xlink="http://www.w3.org/1999/xlink" x="0px" y="0px"
	 viewBox="0 0 512 512" style="enable-background:new 0 0 512 512;" xml:space="preserve">
<style type="text/css">
	.st0{fill:#545454;}
</style>
<g>
	<g>
		<path class="st0" d="M394.7,384c-29.4,0-53.3,23.9-53.3,53.3s23.9,53.3,53.3,53.3s53.3-23.9,53.3-53.3S424.1,384,394.7,384z
			 M394.7,469.3c-17.6,0-32-14.4-32-32s14.4-32,32-32s32,14.4,32,32C426.7,455,412.3,469.3,394.7,469.3z"/>
	</g>
</g>
<g>
	<g>
		<path class="st0" d="M181.3,384c-29.4,0-53.3,23.9-53.3,53.3s23.9,53.3,53.3,53.3s53.3-23.9,53.3-53.3S210.7,384,181.3,384z
			 M181.3,469.3c-17.6,0-32-14.4-32-32s14.4-32,32-32s32,14.4,32,32C213.3,455,199,469.3,181.3,469.3z"/>
	</g>
</g>
<g>
	<g>
		<path class="st0" d="M458.7,341.3H191.1c-25.3,0-47.3-18-52.3-42.9L85.1,29.9c-1-5-5.4-8.6-10.5-8.6h-64C4.8,21.3,0,26.1,0,32
			s4.8,10.7,10.7,10.7h55.3l52,260c7,34.8,37.8,60,73.2,60h267.5c5.9,0,10.7-4.8,10.7-10.7C469.3,346.1,464.6,341.3,458.7,341.3z"/>
	</g>
</g>
<g>
	<g>
		<path class="st0" d="M509.4,89c-2-2.3-5-3.7-8.1-3.7H96c-5.9,0-10.7,4.8-10.7,10.7s4.8,10.7,10.7,10.7h393l-17.2,120.9
			c-0.7,4.8-4.5,8.5-9.3,9.1l-335.8,40.7c-5.9,0.7-10,6-9.3,11.9c0.7,5.4,5.2,9.4,10.6,9.4c0.4,0,0.9,0,1.3-0.1L465,257.9
			c14.3-1.7,25.8-12.9,27.8-27.2l19-133.1C512.3,94.4,511.4,91.3,509.4,89z"/>
	</g>
</g>
</svg>
